<svg width="713" height="148" viewBox="0 0 713 148" xmlns="http://www.w3.org/2000/svg">
<path d="M332.691 46.3903H316.801V57.7783C329.579 60.445 322.224 66.2977 316.801 67.8604V76.5683C329.776 79.8096 322.323 85.7847 316.801 86.611V95.4528C328.585 100.434 323.487 103.664 316.561 105.331C316.044 105.455 315.889 105.606 315.38 107.179C315.036 108.244 314.644 109.301 314.166 110.313C314.008 110.648 313.835 110.995 313.652 111.312C313.325 111.639 312.326 113.893 310.859 111.353C310.068 109.983 309.139 107.595 309.075 107.378C307.885 103.351 307.79 103.687 307.79 98.7555V97.1391C301.505 94.8796 294.914 90.525 307.79 87.394V77.6716C299.744 75.6492 296.687 70.6446 307.79 68.6549V46.3903H293.932V35H332.691V46.3903Z" fill="white"/>
<path d="M229.551 62.9064C231.195 62.9064 232.722 63.1413 234.131 63.611C235.549 64.0718 236.801 64.7312 237.885 65.5894C238.978 66.4386 239.859 67.4459 240.527 68.6113C241.196 69.7766 241.602 71.055 241.747 72.4462H234.131C234.014 71.9674 233.828 71.5473 233.575 71.1859C233.323 70.8156 233.006 70.5039 232.627 70.2509C232.257 69.989 231.823 69.7947 231.326 69.6682C230.838 69.5327 230.301 69.465 229.713 69.465C228.449 69.465 227.369 69.7676 226.475 70.3729C225.589 70.9782 224.912 71.85 224.442 72.9882C223.981 74.1265 223.751 75.4996 223.751 77.1076C223.751 78.7337 223.972 80.125 224.415 81.2814C224.858 82.4377 225.517 83.323 226.394 83.9373C227.27 84.5515 228.358 84.8587 229.659 84.8587C230.806 84.8587 231.76 84.6916 232.518 84.3573C233.286 84.0231 233.86 83.5489 234.239 82.9346C234.598 82.3539 234.787 81.6763 234.807 80.902H229.768V75.5358H242.072V79.3842C242.072 81.9137 241.534 84.0773 240.459 85.8751C239.393 87.6638 237.921 89.037 236.042 89.9946C234.172 90.9431 232.026 91.4173 229.605 91.4173C226.904 91.4173 224.532 90.8437 222.491 89.6964C220.449 88.5491 218.855 86.914 217.707 84.791C216.569 82.668 216 80.1431 216 77.2161C216 74.9215 216.348 72.8889 217.043 71.1182C217.748 69.3476 218.724 67.8525 219.97 66.6329C221.217 65.4043 222.658 64.4783 224.293 63.8549C225.928 63.2226 227.681 62.9064 229.551 62.9064Z" fill="white"/>
<path fill-rule="evenodd" clip-rule="evenodd" d="M278.532 62.9064C281.206 62.9064 283.63 63.4529 285.804 64.546C287.978 65.6301 289.705 67.2337 290.984 69.3566C292.264 71.4706 292.903 74.0723 292.903 77.1619C292.903 80.2514 292.264 82.8578 290.984 84.9808C289.705 87.0947 287.978 88.6981 285.804 89.7912C283.63 90.8753 281.206 91.4173 278.532 91.4173C275.839 91.4173 273.405 90.8708 271.231 89.7777C269.067 88.6755 267.345 87.0675 266.066 84.9536C264.796 82.8307 264.161 80.2334 264.161 77.1619C264.161 74.0723 264.796 71.4706 266.066 69.3566C267.345 67.2337 269.067 65.6301 271.231 64.546C273.405 63.4529 275.839 62.9064 278.532 62.9064ZM278.532 69.465C277.205 69.465 276.084 69.7631 275.17 70.3593C274.266 70.9465 273.578 71.8138 273.107 72.9611C272.645 74.0994 272.414 75.4996 272.414 77.1619C272.414 78.8241 272.645 80.2289 273.107 81.3762C273.578 82.5144 274.266 83.3817 275.17 83.9779C276.084 84.5651 277.205 84.8587 278.532 84.8587C279.86 84.8587 280.975 84.5652 281.88 83.9779C282.793 83.3817 283.481 82.5144 283.943 81.3762C284.414 80.2289 284.65 78.8241 284.65 77.1619C284.65 75.4996 284.414 74.0994 283.943 72.9611C283.481 71.8138 282.793 70.9465 281.88 70.3593C280.975 69.7631 279.86 69.465 278.532 69.465Z" fill="white"/>
<path d="M365.382 62.9064C366.87 62.9064 368.239 63.1458 369.49 63.6246C370.74 64.1034 371.837 64.8035 372.78 65.7249C373.724 66.6373 374.484 67.7621 375.059 69.0991C375.634 70.4361 375.983 71.9674 376.106 73.6929H369.616C369.57 73.0605 369.447 72.4868 369.248 71.9719C369.056 71.4569 368.788 71.0143 368.442 70.6439C368.105 70.2645 367.694 69.9753 367.211 69.7766C366.728 69.5688 366.179 69.465 365.566 69.465C364.492 69.465 363.263 69.7722 362.387 70.3864C361.52 71.0008 360.86 71.8816 360.408 73.0289C359.966 74.1762 359.744 75.5539 359.744 77.1619C359.744 78.8602 359.97 80.2831 360.422 81.4304C360.883 82.5687 361.547 83.4269 362.414 84.0051C363.281 84.5742 364.484 84.8587 365.52 84.8587C366.11 84.8587 366.64 84.7729 367.108 84.6012C367.576 84.4206 367.982 84.1631 368.327 83.8289C368.672 83.4946 368.953 83.0926 369.167 82.6229C369.39 82.1441 369.539 81.6066 369.616 81.0103L376.106 81.0645C376.029 82.2389 375.749 83.4359 375.266 84.6555C374.783 85.866 374.096 86.9862 373.206 88.0161C372.324 89.0369 371.231 89.859 369.927 90.4823C368.623 91.1057 367.108 91.4173 365.382 91.4173C363.218 91.4173 360.548 90.8708 358.525 89.7777C356.51 88.6846 354.916 87.0766 353.741 84.9536C352.576 82.8307 351.993 80.2334 351.993 77.1619C351.993 74.0723 352.59 71.4706 353.782 69.3566C354.975 67.2337 356.583 65.6301 358.606 64.546C360.63 63.4529 363.264 62.9064 365.382 62.9064Z" fill="white"/>
<path d="M459.067 62.9064C460.556 62.9064 461.925 63.1458 463.175 63.6246C464.426 64.1034 465.523 64.8035 466.466 65.7249C467.41 66.6373 468.169 67.7621 468.745 69.0991C469.32 70.4361 469.669 71.9674 469.792 73.6929H463.302C463.256 73.0605 463.133 72.4868 462.934 71.9719C462.742 71.4569 462.473 71.0143 462.128 70.6439C461.791 70.2645 461.38 69.9753 460.897 69.7766C460.414 69.5688 459.865 69.465 459.251 69.465C458.177 69.465 456.949 69.7722 456.073 70.3864C455.205 71.0008 454.546 71.8816 454.094 73.0289C453.651 74.1762 453.43 75.5539 453.43 77.1619C453.43 78.8602 453.656 80.2831 454.108 81.4304C454.568 82.5687 455.232 83.4269 456.1 84.0051C456.967 84.5742 458.17 84.8587 459.205 84.8587C459.796 84.8587 460.325 84.7729 460.793 84.6012C461.261 84.4206 461.668 84.1631 462.013 83.8289C462.358 83.4946 462.638 83.0926 462.853 82.6229C463.075 82.1441 463.225 81.6066 463.302 81.0103L469.792 81.0645C469.715 82.2389 469.435 83.4359 468.952 84.6555C468.468 85.866 467.782 86.9862 466.892 88.0161C466.01 89.0369 464.917 89.859 463.612 90.4823C462.308 91.1057 460.793 91.4173 459.067 91.4173C456.904 91.4173 454.234 90.8708 452.211 89.7777C450.196 88.6846 448.601 87.0766 447.427 84.9536C446.262 82.8307 445.679 80.2334 445.679 77.1619C445.679 74.0723 446.275 71.4706 447.468 69.3566C448.66 67.2337 450.268 65.6301 452.292 64.546C454.315 63.4529 456.95 62.9064 459.067 62.9064Z" fill="white"/>
<path d="M261.396 69.3566H254.013V74.1264H260.367V80.1973H254.013V84.9672H261.653V91.0379H246.478V63.2858H261.396V69.3566Z" fill="white"/>
<path d="M349.036 69.3566H341.512V74.1264H347.878V80.1973H341.512V84.9672H349.357V91.0379H333.977V63.2858H349.036V69.3566Z" fill="white"/>
<path d="M385.634 74.5127H394.228V63.2858H401.762V91.0379H394.228V80.5835H385.634V91.0379H378.099V63.2858H385.634V74.5127Z" fill="white"/>
<path d="M422.202 77.8123H422.419V63.2858H429.953V91.0379H423.666L413.638 76.4572H413.476V91.0379H405.941V63.2858H412.337L422.202 77.8123Z" fill="white"/>
<path d="M442.593 91.0379H435.058V63.2858H442.593V91.0379Z" fill="white"/>
<path fill-rule="evenodd" clip-rule="evenodd" d="M497.125 91.0378H488.995L487.391 85.726H478.24L476.636 91.0378H468.506L477.666 63.2858H487.965L497.125 91.0378ZM479.942 80.0888H485.689L482.924 70.9284H482.707L479.942 80.0888Z" fill="white"/>
<path d="M491.888 53.7093H490.526V57.2479H489.314V53.7093H487.952V52.7184H491.888V53.7093Z" fill="white"/>
<path d="M494.561 55.284H494.614L495.667 52.7184H497.197V57.2479H495.994V54.6293H495.958L494.95 57.2125H494.225L493.216 54.6116H493.181V57.2479H491.977V52.7184H493.508L494.561 55.284Z" fill="white"/>
</svg>
